<svg xmlns="http://www.w3.org/2000/svg" viewBox="0 0 26 26"><path d="M13 0C5.8 0 0 5.8 0 13c0 5.8 3.7 10.6 8.9 12.3.6.1.9-.3.9-.6v-2.4c-3.3.6-4.1-.8-4.4-1.5-.1-.4-.8-1.5-1.3-1.8-.5-.2-1.1-.8 0-.9 1 0 1.8.9 2 1.3 1.2 2 3 1.4 3.8 1.1.1-.8.5-1.4.8-1.7-2.9-.3-5.9-1.4-5.9-6.4 0-1.4.5-2.6 1.3-3.5-.2-.4-.6-1.7.1-3.5 0 0 1.1-.3 3.6 1.3 1-.3 2.1-.4 3.3-.4 1.1 0 2.2.1 3.3.4C18.9 5 20 5.4 20 5.4c.7 1.8.3 3.1.1 3.4.8.9 1.3 2.1 1.3 3.5 0 5-3 6.1-5.9 6.4.5.4.9 1.2.9 2.4v3.6c0 .3.2.7.9.6 5-1.7 8.7-6.6 8.7-12.3 0-7.2-5.8-13-13-13z" fill="#fff"/></svg>